<svg xmlns="http://www.w3.org/2000/svg" viewBox="0 0 35 35"><path d="M1 1h7v7h-7zM11 1h1v1h-1zM13 1h1v2h-1zM17 1h6v2h1v1h2v1h-1v1h-2v-2h-1v-2h-2v2h-1v-2h-2zM27 1h7v7h-7zM2 2v5h5v-5zM16 2h1v1h-1zM28 2v5h5v-5zM3 3h3v3h-3zM9 3h4v1h-1v2h-1v-2h-1v2h1v1h-1v1h1v-1h1v2h-3zM15 3h1v1h-1zM29 3h3v3h-3zM16 4h1v1h1v1h-2v2h-1v-3h1zM18 4h1v1h-1zM13 5h1v1h-1zM19 5h3v1h-2v2h-1zM22 6h1v1h-1zM25 6h1v3h-1zM13 7h1v2h2v2h1v-4h1v2h1v1h-1v2h-1v4h-1v-2h-1v-1h1v-1h-1v1h-1v-3h-1zM21 7h1v1h-1zM23 7h1v3h-1v1h-1v1h1v1h-2v-2h-1v-1h1v-1h1v-1h1zM20 8h1v1h-1zM1 9h1v3h-1zM3 9h5v1h-1v1h1v1h-4v2h1v-1h1v2h-3v-1h-2v-1h2v-2h1v-1h-1zM27 9h5v2h1v1h-1v1h-2v-1h1v-2h-3v1h-1zM5 10v1h1v-1zM8 10h1v1h-1zM11 10h1v1h-1zM24 10h2v1h-2zM9 11h2v1h1v-1h1v2h1v1h-1v1h1v2h-1v1h1v4h-1v-3h-1v-3h-1v-1h1v-1h-1v1h-1v1h1v2h-1v-1h-1v-2h-1v-1h2v-2h-1zM19 11h1v1h-1zM28 11h1v2h1v1h-2v-1h-1v-1h1zM33 12h1v3h-1v3h-1v-1h-2v-1h1v-2h2zM7 13h1v1h-1zM18 13h1v1h-1zM20 13h1v1h-1zM23 13h1v3h-1zM14 14h1v1h-1zM21 14h1v1h-1zM27 14h1v1h-1zM2 15h1v2h-2v-1h1zM6 15h2v1h-2zM18 15h2v2h-1v-1h-1zM29 15h1v1h-1zM5 16h1v1h2v1h-1v1h2v-1h1v2h-1v3h-1v-1h-1v1h1v1h-1v1h-1v-3h-2v2h-1v-1h-1v3h-1v-5h2v-1h2v-2h-2v-1h2zM22 16h1v1h2v2h-1v1h-1v1h-1v-1h-1v-1h1v-1h-1v-1h1zM26 16h1v2h1v1h-1v1h-1zM28 16h1v1h-1zM15 17h1v2h-1zM18 17h1v1h-1zM29 17h1v1h-1zM2 18h1v2h-2v-1h1zM17 18h1v1h-1zM20 18h1v1h-1zM33 18h1v1h-1zM16 19h1v2h-1v2h-1v-3h1zM18 19h2v2h-1v-1h-1zM29 19h4v2h-2v-1h-1v1h1v1h-2zM6 20v1h2v-1zM10 20h2v2h1v2h1v1h-2v-1h-1v-1h-1v-1h1v-1h-1zM24 20h2v1h-2zM27 20h1v1h-1zM18 21h1v1h-1zM21 21h1v1h-1zM23 21h1v1h-1zM26 21h1v1h1v2h-1v-1h-1v1h-1v-1h-1v-1h2zM17 22h1v2h-1v2h-2v-1h1v-2h1zM19 22h2v1h-2zM22 22h1v1h-1zM31 22h3v1h-1v1h1v3h-1v-2h-2v1h-1v5h-1v1h-3v-1h2v-1h-3v-1h-1v-2h1v-1h-1v-2h1v1h1v-1h1v1h1v-1h2v-1h1zM9 23h1v1h-1zM14 23h1v1h-1zM8 24h1v1h-1zM10 24h1v1h-1zM19 24h2v1h-2zM22 24h1v1h-1zM3 25h3v1h-3zM7 25h1v1h-1zM9 25h1v2h-1zM18 25h1v1h-1zM11 26h3v1h-3zM17 26h1v1h-1zM19 26h3v1h-3zM26 26v3h3v-3zM1 27h7v7h-7zM10 27h1v2h1v2h-1v-1h-1v2h-1v-4h1zM16 27h1v1h-1zM22 27h1v2h-1zM27 27h1v1h-1zM32 27h1v1h1v1h-1v1h1v1h-2v-2h-1v-1h1zM2 28v5h5v-5zM12 28h1v1h-1zM19 28h1v1h-1zM3 29h3v3h-3zM14 29h1v1h-1zM16 29h1v1h-1zM18 29h1v2h-1v2h-1v-1h-1v1h-1v1h-1v-1h-1v1h-1v-1h-1v-1h2v-1h2v-1h1v1h1v-1h1zM21 29h1v1h-1zM20 30h1v1h-1zM22 30h1v1h-1zM24 30h1v2h-2v-1h1zM19 31h1v2h-1zM21 31h1v1h1v1h-1v1h-1zM31 31h1v2h-2v1h-1v-2h2zM9 33h2v1h-2zM16 33h1v1h-1zM18 33h1v1h-1zM23 33h3v1h-3zM32 33h1v1h-1z"/></svg>